<?xml version="1.0" standalone="no"?><!DOCTYPE svg PUBLIC "-//W3C//DTD SVG 1.1//EN" "http://www.w3.org/Graphics/SVG/1.1/DTD/svg11.dtd"><svg t="1595820646875" class="icon" viewBox="0 0 1862 1024" version="1.1" xmlns="http://www.w3.org/2000/svg" p-id="1374" xmlns:xlink="http://www.w3.org/1999/xlink" width="363.671875" height="200"><defs><style type="text/css"></style></defs><path d="M1503.325091 863.930182a42.496 42.496 0 1 1 0-84.992 42.496 42.496 0 0 1 0 84.992m-80.384-212.992c-70.749091 0-131.397818 43.147636-157.184 104.494545h-445.533091l-64 64 68.096 68.049455 72.331636-72.285091 69.818182 69.818182 48.733091-48.826182 33.605818 33.652364 52.224-52.224 61.998546 61.905454v-32.023273l32.023272 32.069819h67.770182a170.356364 170.356364 0 0 0 330.612364-58.088728 170.542545 170.542545 0 0 0-170.496-170.542545" fill="#FFC335" p-id="1375"></path><path d="M1760.256 393.867636l-146.152727-66.094545-129.489455-205.870546a214.900364 214.900364 0 0 0-182.923636-100.864H745.565091c-66.885818 0-131.072 31.650909-171.659636 84.759273l-166.632728 217.832727-279.505454 76.055273A173.381818 173.381818 0 0 0 0 566.458182v107.147636c0 46.219636 18.059636 89.693091 50.874182 122.414546a172.637091 172.637091 0 0 0 122.507636 50.501818h17.780364a217.274182 217.274182 0 0 0 209.501091 156.392727 218.344727 218.344727 0 0 0 209.128727-156.392727h67.025455l96.069818-92.253091-196.980364-0.093091a46.08 46.08 0 0 0-50.129454 42.030545c-5.818182 68.701091-67.025455 119.668364-135.912728 114.036364a125.067636 125.067636 0 0 1-114.641454-113.896727 46.685091 46.685091 0 0 0-46.545455-42.077091H173.381818c-21.736727 0-42.123636-8.378182-57.437091-23.691636a79.825455 79.825455 0 0 1-23.738182-56.971637V566.458182a80.989091 80.989091 0 0 1 59.764364-77.730909l294.493091-80.151273a46.173091 46.173091 0 0 0 24.576-16.477091l176.081455-230.260364a124.602182 124.602182 0 0 1 98.39709-48.500363h556.125091c42.914909 0 82.106182 21.550545 104.820364 57.716363L1543.447273 388.654545a46.452364 46.452364 0 0 0 20.061091 17.454546L1722.181818 477.928727a80.849455 80.849455 0 0 1 47.569455 73.402182v122.274909a80.989091 80.989091 0 0 1-81.221818 80.663273h-72.145455c7.447273 21.131636 12.241455 43.52 12.241455 67.165091 0 8.610909-1.489455 16.756364-2.513455 25.134545h62.464a172.683636 172.683636 0 0 0 122.554182-50.594909 171.566545 171.566545 0 0 0 50.874182-122.368v-122.274909a173.335273 173.335273 0 0 0-101.748364-157.463273" fill="#FFC335" p-id="1376"></path></svg>